# xmcd CD database file
#
# Track frame offsets:
#	150
#	15635
#	34977
#
# Disc length: 660 seconds
#
# Revision: 0
# Processed by: cddbd v1.5.1PL0 Copyright (c) Steve Scherf et al.
# Submitted via: CDex 1.51
#
DISCID=1c029203
DTITLE=RAMJET PULLEY - flower
DYEAR=2002
DGENRE=JPop
TTITLE0=FLOWER
TTITLE1=Love me do....
TTITLE2=FLOWER -insrumental-
EXTD=YEAR: 2002
EXTT0=
EXTT1=
EXTT2=
PLAYORDER=
